<svg class="icon" viewBox="0 0 1024 1024" xmlns="http://www.w3.org/2000/svg" width="128" height="128"><path d="M781.186 616.032q17.339 80.574 30.598 145.848 6.12 27.538 11.219 55.076t9.69 49.976 7.648 38.247 4.08 19.889q3.06 20.398-9.18 27.028t-27.537 6.63q-5.1 0-14.789-3.57t-14.789-5.61L511.927 794.518q-72.414 42.837-131.57 76.494-25.498 14.279-50.486 28.558t-45.386 26.518-35.187 20.398-19.889 10.2q-10.199 5.099-20.908 3.569t-19.379-7.65-12.749-14.788-2.04-17.849q1.02-4.08 5.1-19.888t9.18-37.737 11.728-48.447 13.77-54.055q15.298-63.235 34.677-142.79-60.176-52.015-108.112-92.812-20.398-17.339-40.287-34.167t-35.697-30.598-26.008-22.438-11.219-9.69q-12.24-11.219-20.908-24.987t-6.63-28.048 11.22-22.438 20.398-10.2L346.7 313.116l117.29-273.34q6.12-16.318 17.34-28.047T511.927 0q10.2 0 17.849 4.59t12.749 10.709 8.67 12.239 5.609 10.199l114.23 273.339 315.156 29.577q20.398 5.1 28.558 12.24t8.16 22.438q0 14.279-8.67 24.988t-21.928 26.008z"/></svg>